<svg width="582" height="579" fill="none" xmlns="http://www.w3.org/2000/svg"><path d="M256 579c141.385 0 256-114.615 256-256S397.385 67 256 67 0 181.615 0 323s114.615 256 256 256z" fill="url(#paint0_linear)"/><path d="M256 353.118c16.633 0 30.118-13.484 30.118-30.118 0-16.633-13.485-30.118-30.118-30.118-16.634 0-30.118 13.485-30.118 30.118 0 16.634 13.484 30.118 30.118 30.118z" fill="#7173F0"/><path d="M256 142.294c-99.801 0-180.706 80.905-180.706 180.706 0 99.801 80.905 180.706 180.706 180.706 99.801 0 180.706-80.905 180.706-180.706 0-99.801-80.905-180.706-180.706-180.706zm0 286.118c-58.218 0-105.412-47.195-105.412-105.412 0-58.217 47.194-105.412 105.412-105.412 58.217 0 105.412 47.195 105.412 105.412 0 58.217-47.195 105.412-105.412 105.412z" fill="#7172F0"/><path d="M570.723 68.648l-46.53-11.458-11.458-46.53C510.129.074 496.957-3.6 489.248 4.108l-49.786 49.786a32.302 32.302 0 00-8.525 30.564l13.038 52.947 52.948 13.038a32.3 32.3 0 0030.563-8.524l49.787-49.786c7.708-7.709 4.035-20.88-6.55-23.486z" fill="#7B7EF7"/><path d="M570.723 68.648l-46.53-11.458-11.458-46.53C510.129.074 496.958-3.599 489.25 4.107l-28.035 28.035a32.303 32.303 0 00-8.525 30.564l13.038 52.947 52.948 13.038a32.3 32.3 0 0030.563-8.524l28.035-28.034c7.707-7.709 4.034-20.88-6.551-23.486z" fill="#7B7EF7"/><path d="M570.723 68.648l-46.53-11.458-11.458-46.53C510.129.075 496.959-3.599 489.251 4.106l-6.286 6.285a32.304 32.304 0 00-8.524 30.564l13.038 52.947 52.948 13.038a32.3 32.3 0 0030.563-8.524l6.283-6.282c7.708-7.71 4.035-20.881-6.55-23.487z" fill="#7B7EF7"/><path d="M256 340.569a17.515 17.515 0 01-12.423-5.145c-6.861-6.861-6.861-17.986 0-24.846l197.716-197.717c6.861-6.861 17.984-6.861 24.846 0 6.861 6.861 6.861 17.985 0 24.846L268.424 335.424A17.517 17.517 0 01256 340.569z" fill="#7173F0"/><defs><linearGradient id="paint0_linear" x1="-12.047" y1="323" x2="506.117" y2="323" gradientUnits="userSpaceOnUse"><stop stop-color="#7B75F1"/><stop offset="1" stop-color="#7A7FF9"/></linearGradient></defs></svg>