<svg width="171" height="56" fill="none" xmlns="http://www.w3.org/2000/svg"><path d="M14.694 25.446L8.01 21.514l20.49 12.07-13.806-8.138zM28.5 33.583l20.49-12.069-6.684 3.932L28.5 33.583z" fill="#FFE26E"/><path d="M0 16.792l5.03 2.965a3.889 3.889 0 012.504-1.366L28.5 15.816 7.534 18.392a3.89 3.89 0 00-2.504 1.366l2.98 1.756 6.684 3.932L28.5 33.584l13.806-8.138 6.684-3.932L57 16.792 28.5 0 0 16.792z" fill="#96C9EF"/><path d="M6.06 53.868L4.107 43.135.205 55.82l5.854-1.95z" fill="#55A2FF"/><path d="M8.01 21.514v11.864c0 3.21 2.684 6.089 6.938 8.05A32.92 32.92 0 0028.5 44.111V33.583L8.01 21.514z" fill="#D0E6F8"/><path d="M28.5 33.583v10.528a32.92 32.92 0 0013.553-2.683c4.253-1.961 6.937-4.84 6.937-8.05V21.514L28.5 33.584z" fill="#DBECFA"/><path d="M4.108 39.233a.976.976 0 01-.976-.976V22.265a4.886 4.886 0 014.284-4.842l20.965-2.576a.976.976 0 01.238 1.938L7.654 19.36a2.927 2.927 0 00-2.57 2.904v15.992a.976.976 0 01-.976.976z" fill="#57A4FF"/><path d="M8.01 41.184a3.903 3.903 0 11-7.805 0 3.903 3.903 0 017.806 0z" fill="#398DF3"/><path d="M81.05 34h-3.62V19.89h-4.196l-.187 1.57c-.484 3.993-.914 6.798-1.29 8.415-.366 1.61-.905 2.742-1.616 3.398-.711.657-1.672.977-2.883.961-.656 0-1.235-.086-1.735-.257V31a3.93 3.93 0 001.278.234c.414 0 .742-.187.984-.562.242-.383.469-1.086.68-2.11.219-1.03.504-2.714.855-5.05.36-2.344.664-4.559.914-6.645h10.817V34zm6.891-6.574c0 1.297.211 2.277.633 2.941.43.664 1.125.996 2.086.996.953 0 1.637-.328 2.05-.984.423-.664.634-1.649.634-2.953 0-1.297-.211-2.27-.633-2.918-.422-.649-1.113-.973-2.074-.973-.953 0-1.64.324-2.063.973-.422.64-.633 1.613-.633 2.918zm9.059 0c0 2.133-.563 3.8-1.688 5.004-1.124 1.203-2.69 1.804-4.699 1.804-1.257 0-2.367-.273-3.328-.82-.96-.555-1.7-1.348-2.215-2.379-.515-1.031-.773-2.234-.773-3.61 0-2.14.559-3.804 1.676-4.991 1.117-1.188 2.687-1.782 4.71-1.782 1.258 0 2.368.274 3.329.82.96.547 1.699 1.333 2.215 2.356.515 1.024.773 2.223.773 3.598zm12-6.528v2.684h-5.473V34h-3.574V20.898H109zm5.285 6.528c0 1.297.211 2.277.633 2.941.43.664 1.125.996 2.086.996.953 0 1.637-.328 2.051-.984.422-.664.633-1.649.633-2.953 0-1.297-.211-2.27-.633-2.918-.422-.649-1.114-.973-2.075-.973-.953 0-1.64.324-2.062.973-.422.64-.633 1.613-.633 2.918zm9.059 0c0 2.133-.563 3.8-1.688 5.004-1.125 1.203-2.691 1.804-4.699 1.804-1.258 0-2.367-.273-3.328-.82-.961-.555-1.699-1.348-2.215-2.379-.516-1.031-.773-2.234-.773-3.61 0-2.14.558-3.804 1.675-4.991 1.118-1.188 2.688-1.782 4.711-1.782 1.258 0 2.368.274 3.328.82.961.547 1.7 1.333 2.215 2.356.516 1.024.774 2.223.774 3.598zm13.793-6.528v2.684h-4.289V34h-3.575V23.582h-4.3v-2.684h12.164zm5.906 0v5.18c0 .547-.09 1.883-.27 4.008l6.047-9.188h4.301V34h-3.457v-5.227c0-.93.078-2.242.234-3.937L143.875 34h-4.289V20.898h3.457zm25.746 0V34h-3.586V23.582h-4.746V34h-3.574V20.898h11.906z" fill="#fff"/></svg>