<svg width="22" height="25" fill="none" xmlns="http://www.w3.org/2000/svg"><path d="M.55 21.022H4.4v3.41a.56.56 0 00.155.408c.103.107.235.16.395.16h2.87a.533.533 0 00.387-.16.544.544 0 00.163-.408v-3.41h8.68a.52.52 0 00.395-.16.562.562 0 00.155-.408v-2.273a.561.561 0 00-.155-.407.526.526 0 00-.395-.16H8.37v-2.096h5.844c2.292 0 4.162-.721 5.612-2.166C21.275 11.909 22 10.044 22 7.759c0-2.284-.725-4.148-2.174-5.593C18.376.723 16.506 0 14.214 0H4.95a.528.528 0 00-.395.16.565.565 0 00-.155.408v11.169H.55a.513.513 0 00-.395.168.572.572 0 00-.155.4v2.645c0 .166.051.302.155.409a.526.526 0 00.395.159H4.4v2.095H.55a.526.526 0 00-.395.16.562.562 0 00-.155.408v2.273c0 .166.051.302.155.409.103.107.235.16.395.16zm7.82-17.24h5.5c1.215 0 2.194.367 2.94 1.101.744.734 1.116 1.693 1.116 2.876 0 1.184-.372 2.144-1.117 2.877-.745.734-1.724 1.101-2.939 1.101h-5.5V3.782z" fill="#fff"/></svg>