<svg width="118" height="21" fill="none" xmlns="http://www.w3.org/2000/svg"><path d="M12.928 3.816H8.756a222.776 222.776 0 01-.252 4.844 51.338 51.338 0 01-.392 3.948c-.15 1.157-.355 2.184-.616 3.08-.261.896-.597 1.67-1.008 2.324-.261.43-.56.784-.896 1.064-.317.28-.653.504-1.008.672-.355.168-.71.28-1.064.336a4.394 4.394 0 01-.952.112 4.55 4.55 0 01-1.092-.112 3.7 3.7 0 01-.84-.28l.42-3.304a2.037 2.037 0 00.672.112c.299 0 .588-.075.868-.224.299-.15.55-.401.756-.756.28-.41.523-1.008.728-1.792.205-.803.383-1.82.532-3.052.168-1.232.299-2.697.392-4.396.093-1.717.159-3.715.196-5.992h11.564V20h-3.836V3.816zm6.581 6.384c0-3.267.719-5.777 2.156-7.532 1.438-1.773 3.491-2.66 6.16-2.66 1.4 0 2.623.243 3.668.728a6.91 6.91 0 012.604 2.072c.691.896 1.204 1.97 1.54 3.22.336 1.25.504 2.641.504 4.172 0 3.267-.728 5.787-2.184 7.56-1.437 1.755-3.481 2.632-6.132 2.632-1.418 0-2.65-.243-3.696-.728a6.91 6.91 0 01-2.604-2.072c-.672-.896-1.176-1.97-1.512-3.22-.336-1.25-.504-2.641-.504-4.172zm4.032 0c0 .99.084 1.904.252 2.744.168.821.42 1.53.756 2.128a4.035 4.035 0 001.344 1.4c.542.336 1.186.504 1.932.504 1.363 0 2.418-.532 3.164-1.596.747-1.064 1.12-2.79 1.12-5.18 0-.952-.084-1.839-.252-2.66-.149-.821-.392-1.54-.728-2.156-.336-.616-.774-1.092-1.316-1.428-.541-.355-1.204-.532-1.988-.532-1.362 0-2.417.55-3.164 1.652-.746 1.083-1.12 2.79-1.12 5.124zM50.28 3.816h-7.56V20h-3.836V.4H50.28v3.416zm.21 6.384c0-3.267.72-5.777 2.157-7.532 1.437-1.773 3.49-2.66 6.16-2.66 1.4 0 2.622.243 3.668.728a6.91 6.91 0 012.604 2.072c.69.896 1.204 1.97 1.54 3.22.336 1.25.504 2.641.504 4.172 0 3.267-.728 5.787-2.184 7.56-1.438 1.755-3.482 2.632-6.132 2.632-1.419 0-2.65-.243-3.696-.728a6.908 6.908 0 01-2.604-2.072c-.672-.896-1.176-1.97-1.512-3.22-.336-1.25-.504-2.641-.504-4.172zm4.033 0c0 .99.084 1.904.252 2.744.168.821.42 1.53.756 2.128a4.034 4.034 0 001.344 1.4c.541.336 1.185.504 1.932.504 1.362 0 2.417-.532 3.164-1.596.746-1.064 1.12-2.79 1.12-5.18 0-.952-.084-1.839-.252-2.66-.15-.821-.392-1.54-.728-2.156-.336-.616-.775-1.092-1.316-1.428-.542-.355-1.204-.532-1.988-.532-1.363 0-2.418.55-3.164 1.652-.747 1.083-1.12 2.79-1.12 5.124zm28.164-6.384h-5.712V20h-3.836V3.816h-5.74V.4h15.288v3.416zm13.422 5.32l.224-2.548h-.14L94.876 9.22 87.568 20h-2.884V.4h3.836v10.668l-.28 2.632h.168l1.372-2.716L97.088.4h2.856V20h-3.836V9.136zm17.92-5.32h-6.86V20h-3.836V.4h14.532V20h-3.836V3.816z" fill="#fff"/></svg>