<svg width="65" height="59" fill="none" xmlns="http://www.w3.org/2000/svg"><path d="M29.436 24.868a2.013 2.013 0 01.613-1.452 2.184 2.184 0 011.466-.573 2.05 2.05 0 011.466.573 1.98 1.98 0 01.591 1.452 1.945 1.945 0 01-.59 1.43 2.05 2.05 0 01-1.467.573 2.181 2.181 0 01-1.466-.573 1.935 1.935 0 01-.613-1.43zm.46 3.895h3.239v14.062h-3.24V28.763zm7.09 0h2.342v-4.885h3.24v4.885h2.341v2.905h-2.342v11.158h-3.239V31.668h-2.342v-2.905zm12.234 9.463a8.765 8.765 0 002.058 1.716c.626.384 1.345.59 2.079.594.495.035.985-.114 1.379-.418a1.275 1.275 0 00.503-1.078 1.635 1.635 0 00-.854-1.452 12.55 12.55 0 00-2.188-1.035 17.807 17.807 0 01-1.882-.858 4.385 4.385 0 01-1.51-1.32 3.47 3.47 0 01-.591-2.091 3.402 3.402 0 01.656-2.2 4.378 4.378 0 011.773-1.277 6.97 6.97 0 012.386-.418 7.167 7.167 0 013.13.704 6.44 6.44 0 012.188 1.782l-1.839 1.96a5.5 5.5 0 00-1.641-1.343 4.358 4.358 0 00-2.035-.529 1.94 1.94 0 00-1.16.309.99.99 0 00-.438.88 1.413 1.413 0 00.853 1.254c.71.367 1.44.69 2.189.969a17.29 17.29 0 012.188 1.012 4.69 4.69 0 011.576 1.32c.419.614.626 1.348.591 2.09a4.113 4.113 0 01-1.357 3.192 5.212 5.212 0 01-3.633 1.21 7.41 7.41 0 01-3.764-.946 8.571 8.571 0 01-2.517-2.2l1.86-1.827z" fill="#2E2C6C"/><path d="M20.332 28.939L0 12.764v13.908l5.274 4.203 4.815-3.829v7.658l10.243 8.143V28.939z" fill="#47C8F4"/><path d="M0 35.056V59l10.09-8.01V34.703l-4.816-3.829L0 35.056z" fill="#EE3368"/><path d="M5.274 30.875l4.815 3.83v-7.66l-4.815 3.83z" fill="#9E1F63"/><path fill-rule="evenodd" clip-rule="evenodd" d="M60.12 36.355a8.171 8.171 0 001.663-4.907V3.258H11.446A8.075 8.075 0 005.72 5.641 8.165 8.165 0 003.348 11.4v1.276L0 10.146A11.442 11.442 0 013.736 2.89a11.323 11.323 0 017.6-2.89H65v31.448a11.45 11.45 0 01-1.212 5.11 11.384 11.384 0 01-3.362 4.023c.15-.56.224-1.138.219-1.717a5.727 5.727 0 00-.526-2.509z" fill="#2E2C6C"/></svg>